<svg width="18" height="18" viewBox="0 0 18 18" fill="none" xmlns="http://www.w3.org/2000/svg">
<rect width="18" height="18" rx="9" fill="white"/>
<path d="M6.80859 13H5.66113V8.39062C5.66113 7.84049 5.67415 7.4043 5.7002 7.08203C5.62533 7.16016 5.53255 7.24642 5.42188 7.34082C5.31445 7.43522 4.94987 7.7347 4.32812 8.23926L3.75195 7.51172L5.85156 5.86133H6.80859V13ZM14.2912 13H9.45234V12.1309L11.2932 10.2803C11.8368 9.72363 12.1965 9.32975 12.3723 9.09863C12.5513 8.86426 12.6815 8.64453 12.7629 8.43945C12.8443 8.23438 12.885 8.01465 12.885 7.78027C12.885 7.45801 12.7873 7.2041 12.592 7.01855C12.3999 6.83301 12.133 6.74023 11.7912 6.74023C11.5178 6.74023 11.2525 6.79069 10.9953 6.8916C10.7414 6.99251 10.4468 7.1748 10.1115 7.43848L9.49141 6.68164C9.88854 6.34635 10.2743 6.10872 10.6486 5.96875C11.023 5.82878 11.4217 5.75879 11.8449 5.75879C12.509 5.75879 13.0412 5.93294 13.4416 6.28125C13.842 6.6263 14.0422 7.0918 14.0422 7.67773C14.0422 8 13.9836 8.30599 13.8664 8.5957C13.7525 8.88542 13.5751 9.1849 13.3342 9.49414C13.0965 9.80013 12.6994 10.2152 12.1428 10.7393L10.9025 11.9404V11.9893H14.2912V13Z" fill="#CF3E3B"/>
</svg>
