<svg width="38" height="37" viewBox="0 0 38 37" fill="none" xmlns="http://www.w3.org/2000/svg">
<path d="M35.6653 10.7771C34.0869 8.98625 31.8974 8 29.5 8C26.1282 8 23.9936 10.0137 22.7966 11.7031C22.486 12.1415 22.2218 12.5811 22 12.9947C21.7782 12.5811 21.5141 12.1415 21.2034 11.7031C20.0064 10.0137 17.8718 8 14.5 8C12.1026 8 9.91306 8.98631 8.33469 10.7772C6.82919 12.4856 6 14.7736 6 17.2197C6 19.8824 7.03956 22.3589 9.27156 25.0134C11.2664 27.3859 14.1362 29.8314 17.4594 32.6632C18.6977 33.7185 19.9782 34.8098 21.3416 36.0026L21.3825 36.0384C21.5592 36.1932 21.7796 36.2705 22 36.2705C22.2204 36.2705 22.4408 36.1931 22.6175 36.0384L22.6584 36.0026C24.0218 34.8098 25.3023 33.7186 26.5408 32.6631C29.8638 29.8315 32.7336 27.386 34.7284 25.0134C36.9604 22.3589 38 19.8824 38 17.2197C38 14.7736 37.1708 12.4856 35.6653 10.7771ZM25.3246 31.2361C24.2571 32.1458 23.1584 33.0819 22 34.089C20.8416 33.0821 19.7429 32.1458 18.6753 31.236C12.1716 25.6939 7.875 22.0326 7.875 17.2197C7.875 15.2303 8.53781 13.3826 9.74137 12.0169C10.9588 10.6357 12.6487 9.875 14.5 9.875C17.0706 9.875 18.7323 11.4586 19.6735 12.7871C20.5178 13.9786 20.9584 15.1798 21.1086 15.6408C21.2343 16.0268 21.5941 16.2879 22 16.2879C22.4059 16.2879 22.7657 16.0268 22.8914 15.6408C23.0416 15.1798 23.4822 13.9786 24.3265 12.7871C25.2677 11.4586 26.9294 9.875 29.5 9.875C31.3513 9.875 33.0412 10.6357 34.2586 12.0169C35.4622 13.3826 36.125 15.2303 36.125 17.2197C36.125 22.0326 31.8284 25.6939 25.3246 31.2361Z" fill="white"/>
<rect width="18" height="18" rx="9" fill="white"/>
<path d="M6.80859 13H5.66113V8.39062C5.66113 7.84049 5.67415 7.4043 5.7002 7.08203C5.62533 7.16016 5.53255 7.24642 5.42188 7.34082C5.31445 7.43522 4.94987 7.7347 4.32812 8.23926L3.75195 7.51172L5.85156 5.86133H6.80859V13ZM14.2912 13H9.45234V12.1309L11.2932 10.2803C11.8368 9.72363 12.1965 9.32975 12.3723 9.09863C12.5513 8.86426 12.6815 8.64453 12.7629 8.43945C12.8443 8.23438 12.885 8.01465 12.885 7.78027C12.885 7.45801 12.7873 7.2041 12.592 7.01855C12.3999 6.83301 12.133 6.74023 11.7912 6.74023C11.5178 6.74023 11.2525 6.79069 10.9953 6.8916C10.7414 6.99251 10.4468 7.1748 10.1115 7.43848L9.49141 6.68164C9.88854 6.34635 10.2743 6.10872 10.6486 5.96875C11.023 5.82878 11.4217 5.75879 11.8449 5.75879C12.509 5.75879 13.0412 5.93294 13.4416 6.28125C13.842 6.6263 14.0422 7.0918 14.0422 7.67773C14.0422 8 13.9836 8.30599 13.8664 8.5957C13.7525 8.88542 13.5751 9.1849 13.3342 9.49414C13.0965 9.80013 12.6994 10.2152 12.1428 10.7393L10.9025 11.9404V11.9893H14.2912V13Z" fill="#CF3E3B"/>
</svg>
